{"asset":{"version":"2.0","generator":"babylon.js glTF exporter for 3dsmax 2019 v20200618.4"},"scene":0,"scenes":[{"nodes":[0,1,2,3,4,5]}],"nodes":[{"mesh":0,"name":"ClassicBooth"},{"mesh":1,"name":"Monitor_65Inch002"},{"mesh":2,"name":"10x20ClassicBooth_Logo"},{"mesh":3,"name":"DigitalTVStand1"},{"mesh":4,"name":"DigitalTVStand002"},{"name":"Default light"}],"meshes":[{"primitives":[{"attributes":{"POSITION":1,"NORMAL":2,"TEXCOORD_0":3},"indices":0,"material":0},{"attributes":{"POSITION":5,"NORMAL":6,"TEXCOORD_0":7},"indices":4,"material":1},{"attributes":{"POSITION":9,"NORMAL":10,"TEXCOORD_0":11},"indices":8,"material":2}],"name":"ClassicBooth"},{"primitives":[{"attributes":{"POSITION":13,"NORMAL":14,"TEXCOORD_0":15},"indices":12,"material":3},{"attributes":{"POSITION":17,"NORMAL":18,"TEXCOORD_0":19},"indices":16,"material":4}],"name":"Monitor_65Inch002"},{"primitives":[{"attributes":{"POSITION":21,"NORMAL":22,"TEXCOORD_0":23},"indices":20,"material":5}],"name":"10x20ClassicBooth_Logo"},{"primitives":[{"attributes":{"POSITION":25,"NORMAL":26,"TEXCOORD_0":27},"indices":24,"material":4},{"attributes":{"POSITION":29,"NORMAL":30,"TEXCOORD_0":31},"indices":28,"material":6}],"name":"DigitalTVStand1"},{"primitives":[{"attributes":{"POSITION":33,"NORMAL":34,"TEXCOORD_0":35},"indices":32,"material":4},{"attributes":{"POSITION":37,"NORMAL":38,"TEXCOORD_0":39},"indices":36,"material":6}],"name":"DigitalTVStand002"}],"accessors":[{"bufferView":0,"componentType":5123,"count":1044,"type":"SCALAR","name":"accessorIndices"},{"bufferView":1,"componentType":5126,"count":1044,"max":[3.04943514,3.04799986,0.00705866],"min":[-3.04656744,-4.064E-05,-1.52337],"type":"VEC3","name":"accessorPositions"},{"bufferView":1,"byteOffset":12528,"componentType":5126,"count":1044,"type":"VEC3","name":"accessorNormals"},{"bufferView":2,"componentType":5126,"count":1044,"type":"VEC2","name":"accessorUVs"},{"bufferView":0,"byteOffset":2088,"componentType":5123,"count":24,"type":"SCALAR","name":"accessorIndices"},{"bufferView":1,"byteOffset":25056,"componentType":5126,"count":24,"max":[3.04943514,2.97086,1.52470863],"min":[-3.04656744,-4.064E-05,-1.15079021],"type":"VEC3","name":"accessorPositions"},{"bufferView":1,"byteOffset":25344,"componentType":5126,"count":24,"type":"VEC3","name":"accessorNormals"},{"bufferView":2,"byteOffset":8352,"componentType":5126,"count":24,"type":"VEC2","name":"accessorUVs"},{"bufferView":0,"byteOffset":2136,"componentType":5123,"count":6,"type":"SCALAR","name":"accessorIndices"},{"bufferView":1,"byteOffset":25632,"componentType":5126,"count":6,"max":[3.04943514,2.54E-06,1.52470863],"min":[-3.04799986,0.0,-1.52337],"type":"VEC3","name":"accessorPositions"},{"bufferView":1,"byteOffset":25704,"componentType":5126,"count":6,"type":"VEC3","name":"accessorNormals"},{"bufferView":2,"byteOffset":8544,"componentType":5126,"count":6,"type":"VEC2","name":"accessorUVs"},{"bufferView":0,"byteOffset":2148,"componentType":5123,"count":6,"type":"SCALAR","name":"accessorIndices"},{"bufferView":1,"byteOffset":25776,"componentType":5126,"count":6,"max":[0.733887255,2.34225845,-0.8238693],"min":[-0.740183949,1.508407,-0.8238693],"type":"VEC3","name":"accessorPositions"},{"bufferView":1,"byteOffset":25848,"componentType":5126,"count":6,"type":"VEC3","name":"accessorNormals"},{"bufferView":2,"byteOffset":8592,"componentType":5126,"count":6,"type":"VEC2","name":"accessorUVs"},{"bufferView":0,"byteOffset":2160,"componentType":5123,"count":78,"type":"SCALAR","name":"accessorIndices"},{"bufferView":1,"byteOffset":25920,"componentType":5126,"count":78,"max":[0.7633665,2.37173772,-0.8238693],"min":[-0.7696632,1.47892511,-0.8438769],"type":"VEC3","name":"accessorPositions"},{"bufferView":1,"byteOffset":26856,"componentType":5126,"count":78,"type":"VEC3","name":"accessorNormals"},{"bufferView":2,"byteOffset":8640,"componentType":5126,"count":78,"type":"VEC2","name":"accessorUVs"},{"bufferView":0,"byteOffset":2316,"componentType":5123,"count":6,"type":"SCALAR","name":"accessorIndices"},{"bufferView":1,"byteOffset":27792,"componentType":5126,"count":6,"max":[0.3419602,3.047149,-0.8290738],"min":[-0.332844138,2.372342,-0.8290992],"type":"VEC3","name":"accessorPositions"},{"bufferView":1,"byteOffset":27864,"componentType":5126,"count":6,"type":"VEC3","name":"accessorNormals"},{"bufferView":2,"byteOffset":9264,"componentType":5126,"count":6,"type":"VEC2","name":"accessorUVs"},{"bufferView":0,"byteOffset":2328,"componentType":5123,"count":1668,"type":"SCALAR","name":"accessorIndices"},{"bufferView":1,"byteOffset":27936,"componentType":5126,"count":1668,"max":[1.95295262,1.31176519,1.01221538],"min":[0.7325792,0.0,0.349163651],"type":"VEC3","name":"accessorPositions"},{"bufferView":1,"byteOffset":47952,"componentType":5126,"count":1668,"type":"VEC3","name":"accessorNormals"},{"bufferView":2,"byteOffset":9312,"componentType":5126,"count":1668,"type":"VEC2","name":"accessorUVs"},{"bufferView":0,"byteOffset":5664,"componentType":5123,"count":6,"type":"SCALAR","name":"accessorIndices"},{"bufferView":1,"byteOffset":67968,"componentType":5126,"count":6,"max":[1.91530979,1.28526282,0.987059236],"min":[0.767417848,0.74026525,0.392777979],"type":"VEC3","name":"accessorPositions"},{"bufferView":1,"byteOffset":68040,"componentType":5126,"count":6,"type":"VEC3","name":"accessorNormals"},{"bufferView":2,"byteOffset":22656,"componentType":5126,"count":6,"type":"VEC2","name":"accessorUVs"},{"bufferView":0,"byteOffset":5676,"componentType":5123,"count":1668,"type":"SCALAR","name":"accessorIndices"},{"bufferView":1,"byteOffset":68112,"componentType":5126,"count":1668,"max":[-0.724507034,1.31176519,1.01378512],"min":[-1.944883,0.0,0.3507308],"type":"VEC3","name":"accessorPositions"},{"bufferView":1,"byteOffset":88128,"componentType":5126,"count":1668,"type":"VEC3","name":"accessorNormals"},{"bufferView":2,"byteOffset":22704,"componentType":5126,"count":1668,"type":"VEC2","name":"accessorUVs"},{"bufferView":0,"byteOffset":9012,"componentType":5123,"count":6,"type":"SCALAR","name":"accessorIndices"},{"bufferView":1,"byteOffset":108144,"componentType":5126,"count":6,"max":[-0.757255256,1.28526282,0.988067567],"min":[-1.90514731,0.74026525,0.393786341],"type":"VEC3","name":"accessorPositions"},{"bufferView":1,"byteOffset":108216,"componentType":5126,"count":6,"type":"VEC3","name":"accessorNormals"},{"bufferView":2,"byteOffset":36048,"componentType":5126,"count":6,"type":"VEC2","name":"accessorUVs"}],"bufferViews":[{"buffer":0,"byteLength":9024,"name":"bufferViewScalar"},{"buffer":0,"byteOffset":9024,"byteLength":108288,"byteStride":12,"name":"bufferViewFloatVec3"},{"buffer":0,"byteOffset":117312,"byteLength":36096,"byteStride":8,"name":"bufferViewFloatVec2"}],"buffers":[{"uri":"Classic10x20GLTF.bin","byteLength":153408}],"materials":[{"pbrMetallicRoughness":{"baseColorTexture":{"index":0},"metallicFactor":0.0,"roughnessFactor":0.450053632},"occlusionTexture":{"index":0},"name":"ClassicBoothAtlas"},{"pbrMetallicRoughness":{"baseColorTexture":{"index":1},"metallicFactor":0.0,"roughnessFactor":0.450053632},"occlusionTexture":{"index":1},"name":"BoothGFX"},{"pbrMetallicRoughness":{"baseColorTexture":{"index":2},"metallicFactor":0.0,"roughnessFactor":0.450053632},"occlusionTexture":{"index":2},"name":"BoothFloor"},{"pbrMetallicRoughness":{"baseColorTexture":{"index":3},"metallicFactor":0.0,"roughnessFactor":0.450053632},"name":"08 - Default"},{"pbrMetallicRoughness":{"baseColorTexture":{"index":4},"metallicFactor":0.0,"roughnessFactor":0.450053632},"occlusionTexture":{"index":4},"name":"07___Default"},{"pbrMetallicRoughness":{"baseColorTexture":{"index":5},"metallicFactor":0.0,"roughnessFactor":0.450053632},"occlusionTexture":{"index":5},"name":"BoothLogo_dark"},{"pbrMetallicRoughness":{"baseColorTexture":{"index":6},"metallicFactor":0.0,"roughnessFactor":0.450053632},"occlusionTexture":{"index":3},"name":"09___Default"}],"textures":[{"sampler":0,"source":0,"name":"10x20ClassicBooth_ClassicBoothAtlas_BaseColor.png"},{"sampler":0,"source":1,"name":"BackdropTest.png"},{"sampler":0,"source":2,"name":"Tex_WoodFloor_Medium_basecolor.png"},{"sampler":0,"source":3,"name":"Video3.png"},{"sampler":0,"source":4,"name":"LowPoly4P_NewVideoAtlas_BaseColor.png"},{"sampler":0,"source":5,"name":"Logo.png"},{"sampler":0,"source":6,"name":"Popup1.png"}],"images":[{"uri":"./10x20ClassicBooth_ClassicBoothAtlas_BaseColor.png"},{"uri":"./BackdropTest.png"},{"uri":"./Tex_WoodFloor_Medium_basecolor.png"},{"uri":"./Video3.png"},{"uri":"./LowPoly4P_NewVideoAtlas_BaseColor.png"},{"uri":"./Logo.png"},{"uri":"./Popup1.png"}],"samplers":[{"magFilter":9729,"minFilter":9987}]}